<svg width="114" height="114" viewBox="0 0 114 114" fill="none" xmlns="http://www.w3.org/2000/svg">
<g clip-path="url(#clip0_625_22641)">
<path d="M13.0682 58.616C14.3722 57.8471 15.7185 57.1204 17.0509 56.4358L16.1333 54.6497C14.7448 55.3623 13.3845 56.103 12.0524 56.8999L13.0683 58.6441L13.0682 58.616ZM21.1465 54.4525C22.5352 53.8242 23.938 53.2381 25.3551 52.6941L24.6057 50.8243C23.1607 51.3962 21.7297 51.9822 20.313 52.6104L21.1324 54.4384L21.1465 54.4525ZM29.6344 51.1467C31.0796 50.659 32.525 50.2275 33.9986 49.8241L33.4457 47.8986C31.9582 48.316 30.4707 48.7614 28.9973 49.249L29.6344 51.1467ZM38.4195 48.6984C39.9073 48.3653 41.3952 48.0603 42.8972 47.7975L42.5408 45.8163C41.0107 46.0791 39.4947 46.384 37.9648 46.731L38.4195 48.6984ZM47.4036 47.1214C48.9198 46.9288 50.4222 46.7783 51.9527 46.656L51.7788 44.6613C50.2202 44.7835 48.6898 44.9339 47.1454 45.1264L47.4036 47.1214ZM56.5023 46.4154C58.019 46.3633 59.5497 46.3533 61.0666 46.3855L61.0753 44.3772C59.5163 44.359 57.9715 44.3548 56.4127 44.4209L56.4883 46.4294L56.5023 46.4154ZM65.6314 46.5522C67.1484 46.6405 68.6656 46.785 70.1828 46.9576L70.4022 44.9639C68.8569 44.7912 67.2976 44.6607 65.7525 44.5723L65.6315 46.5802L65.6314 46.5522ZM74.7067 47.5595C76.21 47.8023 77.7135 48.0731 79.203 48.3861L79.591 46.421C78.0734 46.1079 76.5278 45.8229 74.9963 45.5801L74.6927 47.5735L74.7067 47.5595ZM83.6578 49.4232C85.1335 49.8064 86.5952 50.2316 88.057 50.6849L88.6418 48.7765C87.1659 48.3091 85.648 47.8837 84.1582 47.4865L83.6578 49.4232ZM92.3865 52.1571C93.8064 52.6805 95.2404 53.2461 96.6464 53.8398L97.428 51.988C95.9938 51.3662 94.5458 50.8146 93.0977 50.263L92.4146 52.1572L92.3865 52.1571ZM100.795 55.7468C102.159 56.4105 103.509 57.1164 104.845 57.8643L105.809 56.1113C104.445 55.3633 103.067 54.6294 101.661 53.9515L100.795 55.7468Z" fill="#919191"/>
<path d="M95.5844 61.1824L95.0596 59.2569L104.589 56.6842L101.291 47.336L103.186 46.681L107.205 58.0676L95.5844 61.1824Z" fill="#919191"/>
<circle cx="8.69421" cy="59.7299" r="3.91825" transform="rotate(-135 8.69421 59.7299)" stroke="#919191" stroke-width="2"/>
</g>
<defs>
<clipPath id="clip0_625_22641">
<rect width="76.2328" height="83.6102" fill="white" transform="matrix(-0.707107 -0.707107 -0.707107 0.707107 113.026 54.5132)"/>
</clipPath>
</defs>
</svg>
